<svg width="194" height="186" viewBox="0 0 194 186" fill="none" xmlns="http://www.w3.org/2000/svg">
<path d="M189.83 73.7299L189.56 73.0399L163.42 4.81995C162.888 3.48288 161.946 2.34863 160.73 1.57996C159.513 0.82434 158.093 0.460411 156.662 0.537307C155.232 0.614203 153.859 1.12822 152.73 2.00996C151.613 2.91701 150.803 4.14609 150.41 5.52995L132.76 59.53H61.2899L43.6399 5.52995C43.2571 4.13855 42.4453 2.90331 41.3199 1.99995C40.1907 1.11822 38.8181 0.6042 37.3875 0.527305C35.9569 0.450409 34.5371 0.814338 33.3199 1.56995C32.1062 2.34173 31.1653 3.47499 30.6299 4.80995L4.43991 73L4.17991 73.69C0.416933 83.522 -0.0475445 94.3109 2.8565 104.43C5.76055 114.549 11.8757 123.45 20.2799 129.79L20.3699 129.86L20.6099 130.03L60.4299 159.85L80.1299 174.76L92.1299 183.82C93.5336 184.886 95.2475 185.463 97.0099 185.463C98.7723 185.463 100.486 184.886 101.89 183.82L113.89 174.76L133.59 159.85L173.65 129.85L173.75 129.77C182.135 123.429 188.236 114.537 191.136 104.432C194.035 94.3262 193.577 83.5527 189.83 73.7299Z" fill="black"/>
</svg>
