<svg xmlns="http://www.w3.org/2000/svg" version="1.1" xmlns:xlink="http://www.w3.org/1999/xlink" xmlns:svgjs="http://svgjs.dev/svgjs" width="106" height="105"><svg width="106" height="105" viewBox="0 0 106 105" fill="none" xmlns="http://www.w3.org/2000/svg">
<path d="M0 37.8C0 25.8432 0 19.8649 2.47387 15.3649C4.30223 12.0391 7.03914 9.30223 10.3649 7.47387C14.8649 5 20.8432 5 32.8 5H67.2C79.1567 5 85.1351 5 89.6351 7.47387C92.9609 9.30223 95.6978 12.0391 97.5261 15.3649C100 19.8649 100 25.8432 100 37.8V72.2C100 84.1567 100 90.1351 97.5261 94.6351C95.6978 97.9609 92.9609 100.698 89.6351 102.526C85.1351 105 79.1568 105 67.2 105H32.8C20.8432 105 14.8649 105 10.3649 102.526C7.03914 100.698 4.30223 97.9609 2.47387 94.6351C0 90.1351 0 84.1568 0 72.2V37.8Z" fill="#292827"></path>
<path d="M6 32.8C6 20.8432 6 14.8649 8.47387 10.3649C10.3022 7.03914 13.0391 4.30223 16.3649 2.47387C20.8649 0 26.8432 0 38.8 0H73.2C85.1567 0 91.1351 0 95.6351 2.47387C98.9609 4.30223 101.698 7.03914 103.526 10.3649C106 14.8649 106 20.8432 106 32.8V67.2C106 79.1567 106 85.1351 103.526 89.6351C101.698 92.9609 98.9609 95.6978 95.6351 97.5261C91.1351 100 85.1568 100 73.2 100H38.8C26.8432 100 20.8649 100 16.3649 97.5261C13.0391 95.6978 10.3022 92.9609 8.47387 89.6351C6 85.1351 6 79.1568 6 67.2V32.8Z" fill="#F7F5F2"></path>
<path fill-rule="evenodd" clip-rule="evenodd" d="M73.2 2H38.8C32.7863 2 28.4044 2.00177 24.9596 2.3017C21.5406 2.59938 19.2334 3.17922 17.3284 4.22648C14.3352 5.87201 11.872 8.33523 10.2265 11.3284C9.17922 13.2334 8.59938 15.5406 8.3017 18.9596C8.00177 22.4044 8 26.7863 8 32.8V67.2C8 73.2137 8.00177 77.5956 8.3017 81.0404C8.59938 84.4594 9.17922 86.7666 10.2265 88.6716C11.872 91.6648 14.3352 94.128 17.3284 95.7735C19.2334 96.8208 21.5406 97.4006 24.9596 97.6983C28.4044 97.9982 32.7863 98 38.8 98H73.2C79.2137 98 83.5956 97.9982 87.0404 97.6983C90.4594 97.4006 92.7666 96.8208 94.6716 95.7735C97.6648 94.128 100.128 91.6648 101.774 88.6716C102.821 86.7666 103.401 84.4594 103.698 81.0404C103.998 77.5956 104 73.2137 104 67.2V32.8C104 26.7863 103.998 22.4044 103.698 18.9596C103.401 15.5406 102.821 13.2334 101.774 11.3284C100.128 8.33523 97.6648 5.87201 94.6716 4.22648C92.7666 3.17922 90.4594 2.59938 87.0404 2.3017C83.5956 2.00177 79.2137 2 73.2 2ZM8.47387 10.3649C6 14.8649 6 20.8432 6 32.8V67.2C6 79.1568 6 85.1351 8.47387 89.6351C10.3022 92.9609 13.0391 95.6978 16.3649 97.5261C20.8649 100 26.8432 100 38.8 100H73.2C85.1568 100 91.1351 100 95.6351 97.5261C98.9609 95.6978 101.698 92.9609 103.526 89.6351C106 85.1351 106 79.1567 106 67.2V32.8C106 20.8432 106 14.8649 103.526 10.3649C101.698 7.03914 98.9609 4.30223 95.6351 2.47387C91.1351 0 85.1567 0 73.2 0H38.8C26.8432 0 20.8649 0 16.3649 2.47387C13.0391 4.30223 10.3022 7.03914 8.47387 10.3649Z" fill="#292827"></path>
<path d="M68.1899 91.285C63.1739 91.285 59.2139 90.262 56.3099 88.216C53.4059 86.236 51.9539 83.827 51.9539 80.989C51.9539 79.801 52.1189 78.712 52.4489 77.722C52.7789 76.798 53.4719 75.709 54.5279 74.455C55.6499 73.201 57.3329 71.584 59.5769 69.604C60.3689 68.878 60.7649 68.218 60.7649 67.624C60.7649 66.964 60.3689 66.469 59.5769 66.139C57.2009 65.149 55.7819 63.895 55.3199 62.377C54.8579 60.793 55.4189 59.341 57.0029 58.021L64.1309 51.883C64.9229 51.223 64.8899 50.662 64.0319 50.2C61.3259 48.88 59.1809 46.834 57.5969 44.062C56.0129 41.29 55.2209 38.32 55.2209 35.152C55.2209 32.116 55.8809 29.377 57.2009 26.935C58.5209 24.493 60.3029 22.546 62.5469 21.094C64.7909 19.642 67.2989 18.916 70.0709 18.916C71.6549 18.916 73.1729 19.18 74.6249 19.708C75.5489 20.038 76.1099 19.741 76.3079 18.817C76.9019 16.309 77.9909 14.362 79.5749 12.976C81.2249 11.524 82.8419 10.798 84.4259 10.798C85.9439 10.798 87.1649 11.26 88.0889 12.184C89.0789 13.042 89.5739 14.131 89.5739 15.451C89.5739 16.573 89.2439 17.464 88.5839 18.124C87.9239 18.784 87.0989 19.114 86.1089 19.114C85.2509 19.114 84.6239 18.949 84.2279 18.619C83.8319 18.289 83.4689 17.959 83.1389 17.629C82.8089 17.299 82.2809 17.134 81.5549 17.134C79.9709 17.134 78.9809 17.992 78.5849 19.708C78.3869 20.368 78.3869 20.929 78.5849 21.391C78.8489 21.853 79.2119 22.315 79.6739 22.777C81.2579 24.295 82.4789 26.143 83.3369 28.321C84.2609 30.499 84.7229 32.908 84.7229 35.548C84.7229 38.716 84.0629 41.554 82.7429 44.062C81.4889 46.57 79.7399 48.55 77.4959 50.002C75.3179 51.454 72.8429 52.18 70.0709 52.18C68.8829 52.18 67.8599 52.444 67.0019 52.972C66.1439 53.434 65.2859 54.127 64.4279 55.051L62.7449 56.932C61.8869 57.988 61.6229 59.011 61.9529 60.001C62.3489 60.925 63.2729 61.387 64.7249 61.387H73.2389C77.9909 61.387 81.7529 62.575 84.5249 64.951C87.2969 67.261 88.6829 70.462 88.6829 74.554C88.6829 77.788 87.7589 80.659 85.9109 83.167C84.0629 85.675 81.5879 87.655 78.4859 89.107C75.4499 90.559 72.0179 91.285 68.1899 91.285ZM69.9719 49.705C72.3479 49.705 74.2289 48.418 75.6149 45.844C77.0009 43.27 77.6939 39.772 77.6939 35.35C77.6939 31.06 76.9679 27.628 75.5159 25.054C74.1299 22.414 72.2819 21.094 69.9719 21.094C67.6619 21.094 65.7809 22.414 64.3289 25.054C62.9429 27.628 62.2499 31.06 62.2499 35.35C62.2499 39.772 62.9429 43.27 64.3289 45.844C65.7149 48.418 67.5959 49.705 69.9719 49.705ZM69.3779 89.107C71.7539 89.107 73.9319 88.579 75.9119 87.523C77.8919 86.467 79.4429 84.982 80.5649 83.068C81.7529 81.22 82.3469 79.108 82.3469 76.732C82.3469 73.762 81.4559 71.485 79.6739 69.901C77.9579 68.251 75.5159 67.426 72.3479 67.426H70.0709C68.0249 67.426 66.4739 67.624 65.4179 68.02C64.4279 68.416 63.4709 69.109 62.5469 70.099C60.5009 72.277 59.2139 74.026 58.6859 75.346C58.1579 76.666 57.8939 78.019 57.8939 79.405C57.8939 82.309 58.8839 84.652 60.8639 86.434C62.9099 88.216 65.7479 89.107 69.3779 89.107Z" fill="#292827"></path>
<path d="M36.8201 70.891C33.9161 70.891 31.2761 69.934 28.9001 68.02C26.5901 66.04 24.7421 63.235 23.3561 59.605C21.9701 55.975 21.2771 51.652 21.2771 46.636C21.2771 41.026 22.1021 36.142 23.7521 31.984C25.4681 27.826 27.7781 24.625 30.6821 22.381C33.5861 20.071 36.8201 18.916 40.3841 18.916C43.4201 18.916 45.7961 19.51 47.5121 20.698C48.1721 21.16 48.5021 21.886 48.5021 22.876L48.7001 34.954C48.7001 35.944 48.3041 36.439 47.5121 36.439C46.7861 36.439 46.3241 36.01 46.1261 35.152C45.2021 31.522 44.3111 28.717 43.4531 26.737C42.5951 24.757 41.7041 23.404 40.7801 22.678C39.8561 21.886 38.8331 21.49 37.7111 21.49C36.3911 21.49 35.0051 22.249 33.5531 23.767C32.1671 25.285 30.9791 27.76 29.9891 31.192C29.0651 34.558 28.6031 39.013 28.6031 44.557C28.6031 51.619 29.4941 56.932 31.2761 60.496C33.1241 64.06 35.5001 65.842 38.4041 65.842C40.7141 65.842 42.6281 64.885 44.1461 62.971C45.7301 61.057 47.0831 57.592 48.2051 52.576C48.4031 51.85 48.7991 51.487 49.3931 51.487C50.1851 51.487 50.4821 52.147 50.2841 53.467C49.5581 58.087 48.5351 61.684 47.2151 64.258C45.9611 66.766 44.4431 68.515 42.6611 69.505C40.9451 70.429 38.9981 70.891 36.8201 70.891Z" fill="#292827"></path>
</svg><style>@media (prefers-color-scheme: light) { :root { filter: none; } }
@media (prefers-color-scheme: dark) { :root { filter: none; } }
</style></svg>