<svg width="138" height="172" viewBox="0 0 138 172" fill="none" xmlns="http://www.w3.org/2000/svg">
<path d="M137.601 97.7786C137.601 116.866 129.749 131.143 117.296 138.337C106.687 144.464 92.7392 145.45 77.4606 139.889C44.2461 127.8 17.3203 89.3462 17.3203 54C17.3203 34.9129 25.172 20.6351 37.6257 13.442C48.2342 7.31474 62.1821 6.32834 77.4606 11.8893C110.675 23.9784 137.601 62.4323 137.601 97.7786Z" fill="#F1F5F8"/>
<path d="M0 64C0 99.3462 26.9257 137.8 60.1403 149.889L77.4608 139.889C44.2463 127.8 17.3205 89.3462 17.3205 54L0 64Z" fill="url(#paint0_linear_3061_7642)"/>
<path d="M20.3054 23.442C7.85169 30.635 0 44.9128 0 64L17.3205 54C17.3205 34.9128 25.1722 20.635 37.6259 13.442L20.3054 23.442Z" fill="url(#paint1_linear_3061_7642)"/>
<path d="M60.1401 149.889C75.4187 155.45 89.3665 154.464 99.9751 148.337L117.285 138.343C106.677 144.465 92.7339 145.448 77.4606 139.889L60.1401 149.889Z" fill="url(#paint2_linear_3061_7642)"/>
<path d="M60.1401 21.8893C44.8668 16.3303 30.9234 17.3141 20.3162 23.4357L37.6257 13.442C48.2342 7.31474 62.1821 6.32834 77.4606 11.8893L60.1401 21.8893Z" fill="url(#paint3_linear_3061_7642)"/>
<path d="M99.9751 148.337C112.429 141.144 120.281 126.866 120.281 107.779L137.601 97.7786C137.601 116.866 129.749 131.144 117.296 138.337L99.9751 148.337Z" fill="url(#paint4_linear_3061_7642)"/>
<path d="M120.28 107.779C120.28 72.4323 93.3547 33.9784 60.1401 21.8893L77.4606 11.8893C110.675 23.9784 137.601 62.4323 137.601 97.7786L120.28 107.779Z" fill="url(#paint5_linear_3061_7642)"/>
<circle cx="64" cy="64" r="63" transform="matrix(0.939693 0.34202 0 1 0 0)" fill="#F1F5F8" stroke="black" stroke-width="2"/>
<mask id="path-9-inside-1_3061_7642" fill="white">
<path fill-rule="evenodd" clip-rule="evenodd" d="M23.5091 123.422C23.1742 121.16 23 118.899 23 116.657C23 94.692 39.7324 82.9758 60.3729 90.4884C81.0134 98.0009 97.7458 121.897 97.7458 143.862C97.7458 145.822 97.6127 147.7 97.3555 149.49C87.0867 154.446 74.085 154.908 59.9433 149.761C46.2468 144.775 33.6198 135.307 23.5091 123.422Z"/>
</mask>
<path fill-rule="evenodd" clip-rule="evenodd" d="M23.5091 123.422C23.1742 121.16 23 118.899 23 116.657C23 94.692 39.7324 82.9758 60.3729 90.4884C81.0134 98.0009 97.7458 121.897 97.7458 143.862C97.7458 145.822 97.6127 147.7 97.3555 149.49C87.0867 154.446 74.085 154.908 59.9433 149.761C46.2468 144.775 33.6198 135.307 23.5091 123.422Z" fill="#DAE1E7"/>
<path d="M23.5091 123.422L21.6552 123.076L21.7775 123.902L22.3695 124.598L23.5091 123.422ZM97.3555 149.49L98.5255 151.481L99.1083 151.199L99.2153 150.454L97.3555 149.49ZM25.363 123.769C25.045 121.621 24.8794 119.472 24.8794 117.341L21.1206 115.973C21.1206 118.325 21.3035 120.7 21.6552 123.076L25.363 123.769ZM24.8794 117.341C24.8794 96.4806 40.7704 85.3536 60.3729 92.4884V88.4884C38.6945 80.5981 21.1206 92.9034 21.1206 115.973L24.8794 117.341ZM60.3729 92.4884C79.9755 99.6231 95.8665 122.318 95.8665 143.178L99.6252 144.546C99.6252 121.477 82.0514 96.3787 60.3729 88.4884V92.4884ZM95.8665 143.178C95.8665 145.041 95.7399 146.825 95.4956 148.525L99.2153 150.454C99.4855 148.574 99.6252 146.602 99.6252 144.546L95.8665 143.178ZM96.1855 147.499C86.2372 152.3 73.6449 152.748 59.9433 147.761V151.761C74.525 157.068 87.9361 156.591 98.5255 151.481L96.1855 147.499ZM59.9433 147.761C46.6728 142.931 34.4434 133.76 24.6487 122.247L22.3695 124.598C32.7962 136.854 45.8209 146.62 59.9433 151.761V147.761Z" fill="black" mask="url(#path-9-inside-1_3061_7642)"/>
<circle cx="19.6571" cy="19.6571" r="18.6571" transform="matrix(0.939693 0.34202 0 1 41.9014 39.8795)" fill="#DAE1E7" stroke="black" stroke-width="2"/>
<defs>
<linearGradient id="paint0_linear_3061_7642" x1="-29.2114" y1="80.8652" x2="23.0148" y2="171.324" gradientUnits="userSpaceOnUse">
<stop stop-color="#E0E9EF"/>
<stop offset="1" stop-color="#BCD0E0"/>
</linearGradient>
<linearGradient id="paint1_linear_3061_7642" x1="-6.88602" y1="39.141" x2="5.59974" y2="60.767" gradientUnits="userSpaceOnUse">
<stop stop-color="white"/>
<stop offset="1" stop-color="#E0E9EF"/>
</linearGradient>
<linearGradient id="paint2_linear_3061_7642" x1="40.3936" y1="161.29" x2="49.68" y2="177.374" gradientUnits="userSpaceOnUse">
<stop stop-color="#BCD0E0"/>
<stop offset="0.5" stop-color="#E7EEF3"/>
<stop offset="1" stop-color="white"/>
</linearGradient>
<linearGradient id="paint3_linear_3061_7642" x1="2.14268" y1="33.9281" x2="11.4291" y2="50.0126" gradientUnits="userSpaceOnUse">
<stop stop-color="white"/>
<stop offset="0.5" stop-color="#E7EEF3"/>
<stop offset="1" stop-color="#BCD0E0"/>
</linearGradient>
<linearGradient id="paint4_linear_3061_7642" x1="93.0891" y1="123.478" x2="105.575" y2="145.104" gradientUnits="userSpaceOnUse">
<stop stop-color="#E0E9EF"/>
<stop offset="1" stop-color="white"/>
</linearGradient>
<linearGradient id="paint5_linear_3061_7642" x1="30.9287" y1="38.7545" x2="83.155" y2="129.213" gradientUnits="userSpaceOnUse">
<stop stop-color="#BCD0E0"/>
<stop offset="1" stop-color="#E0E9EF"/>
</linearGradient>
</defs>
</svg>
