<svg width="100" height="107" viewBox="0 0 100 107" fill="none" xmlns="http://www.w3.org/2000/svg">
<path d="M0 57C0 40.2094 0 31.8142 3.07234 25.3182C6.23769 18.6257 11.6257 13.2377 18.3182 10.0723C24.8142 7 33.2094 7 50 7V7C66.7906 7 75.1858 7 81.6818 10.0723C88.3743 13.2377 93.7623 18.6257 96.9277 25.3182C100 31.8142 100 40.2094 100 57V57C100 73.7906 100 82.1858 96.9277 88.6818C93.7623 95.3743 88.3743 100.762 81.6818 103.928C75.1858 107 66.7906 107 50 107V107C33.2094 107 24.8142 107 18.3182 103.928C11.6257 100.762 6.23769 95.3743 3.07234 88.6818C0 82.1858 0 73.7906 0 57V57Z" fill="black"/>
<path fill-rule="evenodd" clip-rule="evenodd" d="M30.4515 104.622C35.367 104.999 41.5738 105 50 105C58.4262 105 64.633 104.999 69.5485 104.622C74.4427 104.247 77.8916 103.508 80.8267 102.12C87.1009 99.1522 92.1522 94.1009 95.1197 87.8267C96.5079 84.8916 97.2466 81.4427 97.6218 76.5485C97.9986 71.633 98 65.4262 98 57C98 48.5738 97.9986 42.367 97.6218 37.4515C97.2466 32.5573 96.5079 29.1084 95.1197 26.1733C92.1522 19.8991 87.1009 14.8478 80.8267 11.8803C77.8916 10.4921 74.4427 9.75339 69.5485 9.37819C64.633 9.00137 58.4262 9 50 9C41.5738 9 35.367 9.00137 30.4515 9.37819C25.5573 9.75339 22.1084 10.4921 19.1733 11.8803C12.8991 14.8478 7.84783 19.8991 4.88032 26.1733C3.49215 29.1084 2.75339 32.5573 2.37819 37.4515C2.00137 42.367 2 48.5738 2 57C2 65.4262 2.00137 71.633 2.37819 76.5485C2.75339 81.4427 3.49215 84.8916 4.88032 87.8267C7.84783 94.1009 12.8991 99.1522 19.1733 102.12C22.1084 103.508 25.5573 104.247 30.4515 104.622ZM3.07234 25.3182C0 31.8142 0 40.2094 0 57C0 73.7906 0 82.1858 3.07234 88.6818C6.23769 95.3743 11.6257 100.762 18.3182 103.928C24.8142 107 33.2094 107 50 107C66.7906 107 75.1858 107 81.6818 103.928C88.3743 100.762 93.7623 95.3743 96.9277 88.6818C100 82.1858 100 73.7906 100 57C100 40.2094 100 31.8142 96.9277 25.3182C93.7623 18.6257 88.3743 13.2377 81.6818 10.0723C75.1858 7 66.7906 7 50 7C33.2094 7 24.8142 7 18.3182 10.0723C11.6257 13.2377 6.23769 18.6257 3.07234 25.3182Z" fill="black"/>
<path d="M0 50C0 33.2094 0 24.8142 3.07234 18.3182C6.23769 11.6257 11.6257 6.23769 18.3182 3.07234C24.8142 0 33.2094 0 50 0V0C66.7906 0 75.1858 0 81.6818 3.07234C88.3743 6.23769 93.7623 11.6257 96.9277 18.3182C100 24.8142 100 33.2094 100 50V50C100 66.7906 100 75.1858 96.9277 81.6818C93.7623 88.3743 88.3743 93.7623 81.6818 96.9277C75.1858 100 66.7906 100 50 100V100C33.2094 100 24.8142 100 18.3182 96.9277C11.6257 93.7623 6.23769 88.3743 3.07234 81.6818C0 75.1858 0 66.7906 0 50V50Z" fill="white"/>
<path fill-rule="evenodd" clip-rule="evenodd" d="M30.4515 97.6218C35.367 97.9986 41.5738 98 50 98C58.4262 98 64.633 97.9986 69.5485 97.6218C74.4427 97.2466 77.8916 96.5079 80.8267 95.1197C87.1009 92.1522 92.1522 87.1009 95.1197 80.8267C96.5079 77.8916 97.2466 74.4427 97.6218 69.5485C97.9986 64.633 98 58.4262 98 50C98 41.5738 97.9986 35.367 97.6218 30.4515C97.2466 25.5573 96.5079 22.1084 95.1197 19.1733C92.1522 12.8991 87.1009 7.84783 80.8267 4.88032C77.8916 3.49215 74.4427 2.75339 69.5485 2.37819C64.633 2.00137 58.4262 2 50 2C41.5738 2 35.367 2.00137 30.4515 2.37819C25.5573 2.75339 22.1084 3.49215 19.1733 4.88032C12.8991 7.84783 7.84783 12.8991 4.88032 19.1733C3.49215 22.1084 2.75339 25.5573 2.37819 30.4515C2.00137 35.367 2 41.5738 2 50C2 58.4262 2.00137 64.633 2.37819 69.5485C2.75339 74.4427 3.49215 77.8916 4.88032 80.8267C7.84783 87.1009 12.8991 92.1522 19.1733 95.1197C22.1084 96.5079 25.5573 97.2466 30.4515 97.6218ZM3.07234 18.3182C0 24.8142 0 33.2094 0 50C0 66.7906 0 75.1858 3.07234 81.6818C6.23769 88.3743 11.6257 93.7623 18.3182 96.9277C24.8142 100 33.2094 100 50 100C66.7906 100 75.1858 100 81.6818 96.9277C88.3743 93.7623 93.7623 88.3743 96.9277 81.6818C100 75.1858 100 66.7906 100 50C100 33.2094 100 24.8142 96.9277 18.3182C93.7623 11.6257 88.3743 6.23769 81.6818 3.07234C75.1858 0 66.7906 0 50 0C33.2094 0 24.8142 0 18.3182 3.07234C11.6257 6.23769 6.23769 11.6257 3.07234 18.3182Z" fill="black"/>
<path d="M63.1899 90.285C58.1739 90.285 54.2139 89.262 51.3099 87.216C48.4059 85.236 46.9539 82.827 46.9539 79.989C46.9539 78.801 47.1189 77.712 47.4489 76.722C47.7789 75.798 48.4719 74.709 49.5279 73.455C50.6499 72.201 52.3329 70.584 54.5769 68.604C55.3689 67.878 55.7649 67.218 55.7649 66.624C55.7649 65.964 55.3689 65.469 54.5769 65.139C52.2009 64.149 50.7819 62.895 50.3199 61.377C49.8579 59.793 50.4189 58.341 52.0029 57.021L59.1309 50.883C59.9229 50.223 59.8899 49.662 59.0319 49.2C56.3259 47.88 54.1809 45.834 52.5969 43.062C51.0129 40.29 50.2209 37.32 50.2209 34.152C50.2209 31.116 50.8809 28.377 52.2009 25.935C53.5209 23.493 55.3029 21.546 57.5469 20.094C59.7909 18.642 62.2989 17.916 65.0709 17.916C66.6549 17.916 68.1729 18.18 69.6249 18.708C70.5489 19.038 71.1099 18.741 71.3079 17.817C71.9019 15.309 72.9909 13.362 74.5749 11.976C76.2249 10.524 77.8419 9.79797 79.4259 9.79797C80.9439 9.79797 82.1649 10.26 83.0889 11.184C84.0789 12.042 84.5739 13.131 84.5739 14.451C84.5739 15.573 84.2439 16.464 83.5839 17.124C82.9239 17.784 82.0989 18.114 81.1089 18.114C80.2509 18.114 79.6239 17.949 79.2279 17.619C78.8319 17.289 78.4689 16.959 78.1389 16.629C77.8089 16.299 77.2809 16.134 76.5549 16.134C74.9709 16.134 73.9809 16.992 73.5849 18.708C73.3869 19.368 73.3869 19.929 73.5849 20.391C73.8489 20.853 74.2119 21.315 74.6739 21.777C76.2579 23.295 77.4789 25.143 78.3369 27.321C79.2609 29.499 79.7229 31.908 79.7229 34.548C79.7229 37.716 79.0629 40.554 77.7429 43.062C76.4889 45.57 74.7399 47.55 72.4959 49.002C70.3179 50.454 67.8429 51.18 65.0709 51.18C63.8829 51.18 62.8599 51.444 62.0019 51.972C61.1439 52.434 60.2859 53.127 59.4279 54.051L57.7449 55.932C56.8869 56.988 56.6229 58.011 56.9529 59.001C57.3489 59.925 58.2729 60.387 59.7249 60.387H68.2389C72.9909 60.387 76.7529 61.575 79.5249 63.951C82.2969 66.261 83.6829 69.462 83.6829 73.554C83.6829 76.788 82.7589 79.659 80.9109 82.167C79.0629 84.675 76.5879 86.655 73.4859 88.107C70.4499 89.559 67.0179 90.285 63.1899 90.285ZM64.9719 48.705C67.3479 48.705 69.2289 47.418 70.6149 44.844C72.0009 42.27 72.6939 38.772 72.6939 34.35C72.6939 30.06 71.9679 26.628 70.5159 24.054C69.1299 21.414 67.2819 20.094 64.9719 20.094C62.6619 20.094 60.7809 21.414 59.3289 24.054C57.9429 26.628 57.2499 30.06 57.2499 34.35C57.2499 38.772 57.9429 42.27 59.3289 44.844C60.7149 47.418 62.5959 48.705 64.9719 48.705ZM64.3779 88.107C66.7539 88.107 68.9319 87.579 70.9119 86.523C72.8919 85.467 74.4429 83.982 75.5649 82.068C76.7529 80.22 77.3469 78.108 77.3469 75.732C77.3469 72.762 76.4559 70.485 74.6739 68.901C72.9579 67.251 70.5159 66.426 67.3479 66.426H65.0709C63.0249 66.426 61.4739 66.624 60.4179 67.02C59.4279 67.416 58.4709 68.109 57.5469 69.099C55.5009 71.277 54.2139 73.026 53.6859 74.346C53.1579 75.666 52.8939 77.019 52.8939 78.405C52.8939 81.309 53.8839 83.652 55.8639 85.434C57.9099 87.216 60.7479 88.107 64.3779 88.107Z" fill="black"/>
<path d="M31.8201 69.891C28.9161 69.891 26.2761 68.934 23.9001 67.02C21.5901 65.04 19.7421 62.235 18.3561 58.605C16.9701 54.975 16.2771 50.652 16.2771 45.636C16.2771 40.026 17.1021 35.142 18.7521 30.984C20.4681 26.826 22.7781 23.625 25.6821 21.381C28.5861 19.071 31.8201 17.916 35.3841 17.916C38.4201 17.916 40.7961 18.51 42.5121 19.698C43.1721 20.16 43.5021 20.886 43.5021 21.876L43.7001 33.954C43.7001 34.944 43.3041 35.439 42.5121 35.439C41.7861 35.439 41.3241 35.01 41.1261 34.152C40.2021 30.522 39.3111 27.717 38.4531 25.737C37.5951 23.757 36.7041 22.404 35.7801 21.678C34.8561 20.886 33.8331 20.49 32.7111 20.49C31.3911 20.49 30.0051 21.249 28.5531 22.767C27.1671 24.285 25.9791 26.76 24.9891 30.192C24.0651 33.558 23.6031 38.013 23.6031 43.557C23.6031 50.619 24.4941 55.932 26.2761 59.496C28.1241 63.06 30.5001 64.842 33.4041 64.842C35.7141 64.842 37.6281 63.885 39.1461 61.971C40.7301 60.057 42.0831 56.592 43.2051 51.576C43.4031 50.85 43.7991 50.487 44.3931 50.487C45.1851 50.487 45.4821 51.147 45.2841 52.467C44.5581 57.087 43.5351 60.684 42.2151 63.258C40.9611 65.766 39.4431 67.515 37.6611 68.505C35.9451 69.429 33.9981 69.891 31.8201 69.891Z" fill="black"/>
</svg>
