<svg width="163" height="64" viewBox="0 0 163 64" xmlns="http://www.w3.org/2000/svg">
<path d="M23.4211 0.873074C22.8614 0.31402 22.1026 0 21.3116 0C20.5205 0 19.7618 0.31402 19.2021 0.873074C18.643 1.43277 18.329 2.1915 18.329 2.98257C18.329 3.77365 18.643 4.53238 19.2021 5.09208L45.6351 31.5191L19.2021 57.9581C18.643 58.5178 18.329 59.2765 18.329 60.0676C18.329 60.8587 18.643 61.6174 19.2021 62.1771C19.4792 62.4544 19.8085 62.6742 20.171 62.8237C20.5335 62.9732 20.922 63.0494 21.3141 63.0481C22.0781 63.0481 22.8471 62.7561 23.4261 62.1771L54.0781 31.5191L23.4211 0.873074V0.873074Z" fill="currentColor" />
<path d="M5.09207 0.873074C4.53238 0.31402 3.77365 0 2.98257 0C2.1915 0 1.43277 0.31402 0.873074 0.873074C0.31402 1.43277 0 2.1915 0 2.98257C0 3.77365 0.31402 4.53238 0.873074 5.09208L27.3061 31.5191L0.873074 57.9581C0.31402 58.5178 0 59.2765 0 60.0676C0 60.8587 0.31402 61.6174 0.873074 62.1771C1.15022 62.4544 1.47953 62.6742 1.84201 62.8237C2.20449 62.9732 2.59298 63.0494 2.98507 63.0481C3.74907 63.0481 4.51807 62.7561 5.09707 62.1771L35.7491 31.5191L5.09207 0.873074Z" fill="currentColor" />
<path d="M160.242 33.6191L162.348 31.5191L131.696 0.873074C131.136 0.31402 130.378 0 129.587 0C128.795 0 128.037 0.31402 127.477 0.873074C126.921 1.43419 126.609 2.19238 126.609 2.98257C126.609 3.77277 126.921 4.53096 127.477 5.09208L150.933 28.5421H70.321C70.052 28.5421 69.814 28.6321 69.569 28.6911L41.752 0.873074C41.1923 0.31402 40.4336 0 39.6425 0C38.8515 0 38.0927 0.31402 37.533 0.873074C36.974 1.43277 36.66 2.1915 36.66 2.98257C36.66 3.77365 36.974 4.53238 37.533 5.09208L63.9661 31.5191L37.533 57.9581C36.974 58.5178 36.66 59.2765 36.66 60.0676C36.66 60.8587 36.974 61.6174 37.533 62.1771C38.0942 62.7352 38.8536 63.0485 39.645 63.0485C40.4365 63.0485 41.1959 62.7352 41.757 62.1771L69.5631 34.3531C69.8081 34.4191 70.052 34.5081 70.321 34.5081H150.921L127.483 57.9581C126.927 58.5192 126.615 59.2774 126.615 60.0676C126.615 60.8578 126.927 61.616 127.483 62.1771C128.074 62.7621 128.837 63.0481 129.595 63.0481C130.353 63.0481 131.123 62.7561 131.707 62.1771L160.217 33.6491C160.227 33.6409 160.236 33.6307 160.242 33.6191Z" fill="currentColor" />
</svg>
