<svg width="163" height="64" viewBox="0 0 163 64" xmlns="http://www.w3.org/2000/svg">
<path d="M138.927 62.475C139.487 63.034 140.245 63.348 141.036 63.348C141.828 63.348 142.586 63.034 143.146 62.475C143.705 61.9153 144.019 61.1565 144.019 60.3655C144.019 59.5744 143.705 58.8157 143.146 58.256L116.713 31.829L143.146 5.38995C143.705 4.83026 144.019 4.07153 144.019 3.28046C144.019 2.48938 143.705 1.73065 143.146 1.17095C142.869 0.893587 142.54 0.673827 142.177 0.524338C141.815 0.374848 141.426 0.298591 141.034 0.299957C140.27 0.299957 139.501 0.591951 138.922 1.17095L108.27 31.829L138.927 62.475V62.475Z" fill="currentColor" />
<path d="M157.256 62.475C157.816 63.034 158.574 63.348 159.365 63.348C160.157 63.348 160.915 63.034 161.475 62.475C162.034 61.9153 162.348 61.1565 162.348 60.3655C162.348 59.5744 162.034 58.8157 161.475 58.256L135.042 31.829L161.475 5.38995C162.034 4.83026 162.348 4.07153 162.348 3.28046C162.348 2.48938 162.034 1.73065 161.475 1.17095C161.198 0.893587 160.869 0.673827 160.506 0.524338C160.144 0.374848 159.755 0.298591 159.363 0.299957C158.599 0.299957 157.83 0.591951 157.251 1.17095L126.599 31.829L157.256 62.475Z" fill="currentColor" />
<path d="M2.10591 29.7289L-8.87972e-05 31.8289L30.6519 62.4749C31.2116 63.034 31.9703 63.348 32.7614 63.348C33.5525 63.348 34.3112 63.034 34.8709 62.4749C35.4273 61.9138 35.7395 61.1556 35.7395 60.3654C35.7395 59.5753 35.4273 58.8171 34.8709 58.2559L11.4149 34.8059L92.0269 34.806C92.2959 34.806 92.5339 34.7159 92.7789 34.6569L120.596 62.475C121.156 63.034 121.914 63.348 122.705 63.348C123.496 63.348 124.255 63.034 124.815 62.475C125.374 61.9153 125.688 61.1565 125.688 60.3655C125.688 59.5744 125.374 58.8157 124.815 58.256L98.3819 31.829L124.815 5.38995C125.374 4.83026 125.688 4.07153 125.688 3.28046C125.688 2.48938 125.374 1.73065 124.815 1.17095C124.254 0.612811 123.494 0.299507 122.703 0.299507C121.911 0.299507 121.152 0.61281 120.591 1.17095L92.7849 28.995C92.5399 28.929 92.2959 28.84 92.0269 28.84L11.4269 28.8399L34.8649 5.38995C35.4213 4.82883 35.7335 4.07064 35.7335 3.28045C35.7335 2.49026 35.4213 1.73206 34.8649 1.17094C34.2739 0.585944 33.5109 0.299949 32.7529 0.299949C31.9949 0.299949 31.2249 0.591944 30.6409 1.17094L2.13092 29.6989C2.1206 29.7071 2.11208 29.7173 2.10591 29.7289Z" fill="currentColor" />
</svg>
