<svg xmlns="http://www.w3.org/2000/svg" viewBox="0 -256 1792 1792"><path fill="#606f7b" d="M1212.746 497.898q0-185-131.5-316.5t-316.5-131.5q-185 0-316.5 131.5t-131.5 316.5q0 185 131.5 316.5t316.5 131.5q185 0 316.5-131.5t131.5-316.5zm512 832q0 52-38 90t-90 38q-54 0-90-38l-343-342q-179 124-399 124-143 0-273.5-55.5t-225-150q-94.5-94.5-150-225t-55.5-273.5q0-143 55.5-273.5t150-225q94.5-94.5 225-150t273.5-55.5q143 0 273.5 55.5t225 150q94.5 94.5 150 225t55.5 273.5q0 220-124 399l343 343q37 37 37 90z"/></svg>
