<svg width="416" height="404" fill="none" xmlns="http://www.w3.org/2000/svg"><path d="M208 .08C93.273.08.08 93.273.08 208c0 88.881 55.903 164.944 134.47 194.64a9.05 9.05 0 0011.58-5.361l44.92-118.369a8.932 8.932 0 00-.181-7.07 8.821 8.821 0 00-5.189-4.791C161.779 258 144.72 235.147 144.72 208c0-35.066 28.214-63.28 63.28-63.28s63.28 28.214 63.28 63.28c0 27.156-17.058 50-40.96 59.04a8.83 8.83 0 00-5.189 4.809 8.921 8.921 0 00-.181 7.052l44.92 118.369a9.047 9.047 0 0011.58 5.37C360.017 372.944 415.92 296.881 415.92 208 415.92 93.273 322.727.08 208 .08z" fill="currentColor"/></svg>
