<svg width="256" height="319" viewBox="0 0 256 319" fill="none" xmlns="http://www.w3.org/2000/svg">
<path fill-rule="evenodd" clip-rule="evenodd" d="M190.165 3.05231L188.665 39.1268C188.645 39.5795 188.756 40.0283 188.982 40.4207C189.209 40.813 189.542 41.1329 189.944 41.3427C190.345 41.5526 190.798 41.6438 191.25 41.6057C191.701 41.5677 192.133 41.4019 192.494 41.1278L206.507 30.4978L218.342 39.8228C218.699 40.105 219.13 40.2789 219.583 40.3241C220.037 40.3692 220.494 40.2837 220.9 40.0776C221.306 39.8715 221.645 39.5535 221.876 39.161C222.108 38.7685 222.222 38.3181 222.206 37.8628L220.923 1.12993L238.494 0.0317793C247.316 -0.520221 254.914 6.18478 255.466 15.0068C255.486 15.3388 255.497 15.6718 255.497 16.0048V302.319C255.497 311.158 248.332 318.323 239.493 318.323C239.253 318.323 239.013 318.318 238.775 318.307L25.1476 308.712C16.8276 308.339 10.1846 301.647 9.87155 293.324L0.0115541 30.5738C-0.315446 21.8948 6.33755 14.5398 15.0046 13.9998L190.165 3.05231ZM196.986 118.849C191.356 123.223 149.414 126.207 149.414 119.98C150.3 96.2208 139.663 95.1788 133.754 95.1788C128.139 95.1788 118.684 96.8758 118.684 109.604C118.684 122.575 132.501 129.897 148.72 138.492C171.76 150.702 199.645 165.479 199.645 202.664C199.645 238.303 170.688 257.99 133.753 257.99C95.6356 257.99 62.3256 242.569 66.0876 189.103C67.5656 182.825 116.024 184.317 116.024 189.103C115.433 211.165 120.457 217.655 133.162 217.655C142.913 217.655 147.346 212.281 147.346 203.229C147.346 189.531 132.948 181.448 116.386 172.149C93.9607 159.558 67.5656 144.739 67.5656 110.735C67.5656 76.7928 90.9086 54.1648 132.571 54.1648C174.234 54.1648 196.986 76.4468 196.986 118.849Z" fill="currentColor"/>
</svg>
